<svg xmlns="http://www.w3.org/2000/svg" width="32" height="11" viewBox="0 0 32 11">
    <g fill="none" fill-rule="evenodd">
        <path fill="#00B9F5" d="M31.806 2.964a2.127 2.127 0 0 0-2.006-1.43h-.02c-.602 0-1.146.252-1.533.657a2.115 2.115 0 0 0-1.532-.657h-.02c-.53 0-1.014.196-1.386.517v-.163a.314.314 0 0 0-.312-.292h-1.422a.315.315 0 0 0-.314.316V9.67c0 .175.14.317.314.317h1.422c.16 0 .29-.12.31-.274V4.145c0-.019 0-.038.002-.056a.519.519 0 0 1 .49-.478h.263c.12.01.221.053.3.116.124.1.193.25.193.418l.005 5.541c0 .175.141.317.315.317h1.422a.315.315 0 0 0 .313-.301l-.001-5.564a.525.525 0 0 1 .493-.535h.262c.307.028.494.26.493.535l.006 5.534c0 .174.14.316.314.316H31.6a.315.315 0 0 0 .315-.316V3.72c0-.406-.046-.58-.108-.756M22.177 1.617h-.813V.293.289A.288.288 0 0 0 21.076 0a.254.254 0 0 0-.054.006c-.902.248-.72 1.504-2.367 1.61h-.16a.316.316 0 0 0-.314.315l-.001 1.43c0 .174.141.316.315.316h.858l-.001 6.057c0 .172.14.312.31.312h1.407c.171 0 .31-.14.31-.312l.001-6.057h.797a.315.315 0 0 0 .315-.317V1.932a.315.315 0 0 0-.315-.315"/>
        <path fill="#012B72" d="M17.06 1.617h-1.422a.315.315 0 0 0-.315.315v2.954a.333.333 0 0 1-.332.33h-.596a.334.334 0 0 1-.334-.335l-.006-2.949a.315.315 0 0 0-.314-.315h-1.422a.315.315 0 0 0-.315.315V5.17c0 1.23.873 2.105 2.098 2.105 0 0 .92 0 .948.006a.333.333 0 0 1 .004.66l-.023.005-2.08.008a.315.315 0 0 0-.315.316v1.428c0 .175.14.316.314.316h2.326c1.225 0 2.098-.877 2.098-2.107V1.932a.315.315 0 0 0-.315-.315M3.292 4.234v.881a.334.334 0 0 1-.333.335l-.902.001V3.684h.902c.184 0 .333.15.333.335v.215zm.125-2.618H.308a.309.309 0 0 0-.308.31v7.762c0 .172.128.312.288.316h1.448a.315.315 0 0 0 .315-.316l.006-2.171h1.36c1.14 0 1.933-.793 1.933-1.941V3.56c0-1.148-.794-1.945-1.933-1.945zM9.194 7.587v.224a.303.303 0 0 1-.02.098.332.332 0 0 1-.315.216h-.592c-.185 0-.335-.14-.335-.314v-.27l-.001-.01v-.943c.002-.173.15-.313.336-.313h.592c.185 0 .335.141.335.315v.997zm-.227-5.962H6.994c-.174 0-.316.132-.316.296v.555l.001.011-.001.012v.761c0 .174.15.314.335.314h1.88a.327.327 0 0 1 .282.302v.185c-.017.161-.133.28-.275.293h-.93c-1.238 0-2.12.826-2.12 1.985V8c0 1.153.758 1.973 1.987 1.973h2.58c.462 0 .837-.352.837-.785v-5.42c0-1.315-.674-2.144-2.287-2.144z"/>
    </g>
</svg>
